<svg xmlns="http://www.w3.org/2000/svg" width="498.39" height="304.68" viewBox="0 0 498.39 304.68"><defs><style>.cls-1,.cls-2{fill:#f1f2f2;stroke-miterlimit:10;stroke-width:4px;}.cls-1{stroke:#e6e760;}.cls-2{stroke:#8caedc;}</style></defs><g id="Layer_2" data-name="Layer 2"><g id="Layer_1-2" data-name="Layer 1"><rect class="cls-1" x="23.55" y="2" width="472.84" height="278.24" rx="13"/><line class="cls-1" x1="23.55" y1="45" x2="496.39" y2="45"/><line class="cls-1" x1="458.31" y1="12.84" x2="476.33" y2="30.34"/><line class="cls-1" x1="476.33" y1="12.84" x2="458.31" y2="30.34"/><rect class="cls-1" x="420.12" y="9.85" width="18.55" height="18.55"/><rect class="cls-1" x="425.67" y="14.78" width="18.55" height="18.55"/><line class="cls-1" x1="378.69" y1="24.06" x2="399.03" y2="24.06"/><rect class="cls-2" x="2" y="24.44" width="472.84" height="278.24" rx="13"/><line class="cls-2" x1="2" y1="67.44" x2="474.84" y2="67.44"/><line class="cls-2" x1="436.76" y1="35.28" x2="454.78" y2="52.79"/><line class="cls-2" x1="454.78" y1="35.28" x2="436.76" y2="52.79"/><rect class="cls-2" x="398.57" y="32.29" width="18.55" height="18.55"/><rect class="cls-2" x="404.12" y="37.23" width="18.55" height="18.55"/><line class="cls-2" x1="357.14" y1="46.5" x2="377.48" y2="46.5"/></g></g></svg>